<svg width="450" height="48" viewBox="0 0 450 48" fill="none" xmlns="http://www.w3.org/2000/svg">
<path d="M13 44H-19V40C-19 35.6 -11.8 32 -3 32C5.8 32 13 35.6 13 40V44ZM-11 18H5V20C5 24.4 1.4 28 -3 28C-7.4 28 -11 24.4 -11 20V18ZM11 8.00005C9.8 8.00005 8.99999 8.80005 8.99999 10V12H6L3.2 6.00005C3 5.60005 2.8 5.20005 2.4 5.00005C1.4 4.00005 -0.200005 3.80005 -1.6 4.40005L-3 4.80005L-4.4 4.20005C-5.8 3.60005 -7.4 3.80005 -8.4 4.80005C-8.8 5.20005 -9 5.60005 -9.2 6.00005L-12 12H-15V10C-15 8.80005 -15.8 8.00005 -17 8.00005C-18.2 8.00005 -19 8.80005 -19 10V12C-19 14.2 -17.2 16 -15 16H8.99999C11.2 16 13 14.2 13 12V10C13 9.00005 12.2 8.00005 11 8.00005Z" fill="#424242"/>
<path d="M69.328 26.214L72.962 28.312L76.702 26.152V22.02L72.92 19.84L69.328 22.084V26.214ZM65.328 23.904V9.956C61.6126 11.9898 58.8525 15.4107 57.65 19.472L65.33 23.904H65.328ZM57.002 23.716L57 24C56.9941 28.0923 58.5624 32.0302 61.38 34.998L68.96 30.62L57.002 23.716ZM69.328 17.368L80.944 10.108C78.526 8.72239 75.7868 7.99552 73 8C71.736 8 70.508 8.146 69.328 8.424V17.368ZM84.334 12.708L76.762 17.438L88.992 24.5C89.0632 22.3201 88.6866 20.1488 87.8854 18.1202C87.0842 16.0916 85.8755 14.2489 84.334 12.706V12.708ZM80.702 24.332V38.028C84.3432 36.0245 87.0649 32.6862 88.294 28.716L80.702 24.332ZM64.716 37.692C67.2135 39.2064 70.0793 40.0048 73 40C74.274 40 75.514 39.852 76.7 39.57V30.77L64.716 37.69V37.692ZM73 44C61.954 44 53 35.046 53 24C53 12.954 61.954 4 73 4C84.046 4 93 12.954 93 24C93 35.046 84.046 44 73 44Z" fill="#424242"/>
<path fill-rule="evenodd" clip-rule="evenodd" d="M143 2H127V18H143V12H147V40H155V46H171V30H155V36H151V12H155V18H171V2H155V8H143V2ZM167 6H159V14H167V6ZM159 34H167V42H159V34Z" fill="#424242"/>
<path d="M213 19H207V6H243V19H237" stroke="#424242" stroke-width="4" stroke-linecap="round" stroke-linejoin="round"/>
<path d="M213 12H237V44L231 39.556L225 44L219 39.556L213 44V12Z" fill="#2F88FF" stroke="#424242" stroke-width="4" stroke-linecap="round" stroke-linejoin="round"/>
<path d="M225 22V30M221 26H229H221Z" stroke="white" stroke-width="4" stroke-linecap="round"/>
<path d="M317 16H285V40C285 42.2 286.8 44 289 44H313C315.2 44 317 42.2 317 40V16Z" fill="#616161"/>
<path d="M313 4H289C286.8 4 285 5.8 285 8V17H317V8C317 5.8 315.2 4 313 4Z" fill="#424242"/>
<path d="M313 14H289C288.4 14 288 13.6 288 13V8C288 7.4 288.4 7 289 7H313C313.6 7 314 7.4 314 8V13C314 13.6 313.6 14 313 14Z" fill="#9CCC65"/>
<path d="M310 10H312V12H310V10Z" fill="#33691E"/>
<path d="M306 10H308V12H306V10Z" fill="#33691E"/>
<path d="M313 23H310C309.4 23 309 22.6 309 22V20C309 19.4 309.4 19 310 19H313C313.6 19 314 19.4 314 20V22C314 22.6 313.6 23 313 23Z" fill="#FF5252"/>
<path d="M292 23H289C288.4 23 288 22.6 288 22V20C288 19.4 288.4 19 289 19H292C292.6 19 293 19.4 293 20V22C293 22.6 292.6 23 292 23Z" fill="#E0E0E0"/>
<path d="M299 23H296C295.4 23 295 22.6 295 22V20C295 19.4 295.4 19 296 19H299C299.6 19 300 19.4 300 20V22C300 22.6 299.6 23 299 23Z" fill="#E0E0E0"/>
<path d="M306 23H303C302.4 23 302 22.6 302 22V20C302 19.4 302.4 19 303 19H306C306.6 19 307 19.4 307 20V22C307 22.6 306.6 23 306 23Z" fill="#E0E0E0"/>
<path d="M292 29H289C288.4 29 288 28.6 288 28V26C288 25.4 288.4 25 289 25H292C292.6 25 293 25.4 293 26V28C293 28.6 292.6 29 292 29Z" fill="#E0E0E0"/>
<path d="M299 29H296C295.4 29 295 28.6 295 28V26C295 25.4 295.4 25 296 25H299C299.6 25 300 25.4 300 26V28C300 28.6 299.6 29 299 29Z" fill="#E0E0E0"/>
<path d="M306 29H303C302.4 29 302 28.6 302 28V26C302 25.4 302.4 25 303 25H306C306.6 25 307 25.4 307 26V28C307 28.6 306.6 29 306 29Z" fill="#E0E0E0"/>
<path d="M292 35H289C288.4 35 288 34.6 288 34V32C288 31.4 288.4 31 289 31H292C292.6 31 293 31.4 293 32V34C293 34.6 292.6 35 292 35Z" fill="#E0E0E0"/>
<path d="M299 35H296C295.4 35 295 34.6 295 34V32C295 31.4 295.4 31 296 31H299C299.6 31 300 31.4 300 32V34C300 34.6 299.6 35 299 35Z" fill="#E0E0E0"/>
<path d="M306 35H303C302.4 35 302 34.6 302 34V32C302 31.4 302.4 31 303 31H306C306.6 31 307 31.4 307 32V34C307 34.6 306.6 35 306 35Z" fill="#E0E0E0"/>
<path d="M292 41H289C288.4 41 288 40.6 288 40V38C288 37.4 288.4 37 289 37H292C292.6 37 293 37.4 293 38V40C293 40.6 292.6 41 292 41Z" fill="#E0E0E0"/>
<path d="M299 41H296C295.4 41 295 40.6 295 40V38C295 37.4 295.4 37 296 37H299C299.6 37 300 37.4 300 38V40C300 40.6 299.6 41 299 41Z" fill="#E0E0E0"/>
<path d="M306 41H303C302.4 41 302 40.6 302 40V38C302 37.4 302.4 37 303 37H306C306.6 37 307 37.4 307 38V40C307 40.6 306.6 41 306 41Z" fill="#E0E0E0"/>
<path d="M313 29H310C309.4 29 309 28.6 309 28V26C309 25.4 309.4 25 310 25H313C313.6 25 314 25.4 314 26V28C314 28.6 313.6 29 313 29Z" fill="#BDBDBD"/>
<path d="M313 35H310C309.4 35 309 34.6 309 34V32C309 31.4 309.4 31 310 31H313C313.6 31 314 31.4 314 32V34C314 34.6 313.6 35 313 35Z" fill="#BDBDBD"/>
<path d="M313 41H310C309.4 41 309 40.6 309 40V38C309 37.4 309.4 37 310 37H313C313.6 37 314 37.4 314 38V40C314 40.6 313.6 41 313 41Z" fill="#BDBDBD"/>
<path d="M365.768 30V40.0005C365.768 42.7605 372.983 45 381.884 45C390.785 45 398 42.7605 398 40.0005V30H365.768Z" fill="#881421"/>
<path d="M365.768 19.0005V30C365.768 32.7615 372.983 34.9995 381.884 34.9995C390.785 34.9995 398 32.7615 398 30V19.0005H365.768Z" fill="#AF2031"/>
<path d="M365.768 7.99951V19.0005C365.768 21.7605 372.983 24 381.884 24C390.785 24 398 21.7605 398 19.0005V7.99951H365.768Z" fill="#C94F60"/>
<path d="M381.884 12.999C390.785 12.999 398 10.7606 398 7.9995C398 5.23835 390.785 3 381.884 3C372.983 3 365.768 5.23835 365.768 7.9995C365.768 10.7606 372.983 12.999 381.884 12.999Z" fill="#E08095"/>
<path opacity="0.1" d="M377.651 12H365.768V37.0005H377.651C378.131 36.9934 378.589 36.7966 378.924 36.4532C379.26 36.1098 379.446 35.6476 379.442 35.1675V13.833C379.446 13.3529 379.26 12.8907 378.924 12.5473C378.589 12.2038 378.131 12.0071 377.651 12Z" fill="#424242"/>
<path opacity="0.2" d="M376.674 13.0005H365.768V37.9995H376.674C377.155 37.9924 377.612 37.7956 377.948 37.4522C378.283 37.1088 378.47 36.6466 378.465 36.1665V14.8335C378.47 14.3534 378.283 13.8912 377.948 13.5478C377.612 13.2043 377.155 13.0076 376.674 13.0005Z" fill="#424242"/>
<path opacity="0.2" d="M376.674 13.0005H365.768V36H376.674C377.155 35.9929 377.612 35.7961 377.948 35.4527C378.283 35.1093 378.47 34.6471 378.465 34.167V14.8335C378.47 14.3534 378.283 13.8912 377.948 13.5478C377.612 13.2043 377.155 13.0076 376.674 13.0005Z" fill="#424242"/>
<path opacity="0.2" d="M375.698 13.0005H365.768V36H375.698C376.178 35.9925 376.635 35.7956 376.971 35.4523C377.306 35.109 377.493 34.647 377.489 34.167V14.8335C377.493 14.3535 377.306 13.8915 376.971 13.5482C376.635 13.2049 376.178 13.008 375.698 13.0005Z" fill="#424242"/>
<path d="M357.791 13.0005H375.698C375.936 13.0032 376.171 13.0528 376.39 13.1464C376.609 13.24 376.807 13.3758 376.973 13.546C377.139 13.7162 377.271 13.9175 377.359 14.1384C377.448 14.3594 377.492 14.5955 377.489 14.8335V33.1665C377.492 33.4044 377.448 33.6406 377.359 33.8615C377.271 34.0824 377.139 34.2837 376.973 34.454C376.807 34.6242 376.609 34.76 376.39 34.8536C376.171 34.9472 375.936 34.9967 375.698 34.9995H357.791C357.553 34.9967 357.318 34.9472 357.099 34.8536C356.88 34.76 356.682 34.6242 356.516 34.454C356.35 34.2837 356.218 34.0824 356.13 33.8615C356.041 33.6406 355.997 33.4044 356 33.1665V14.8335C355.997 14.5955 356.041 14.3594 356.13 14.1384C356.218 13.9175 356.35 13.7162 356.516 13.546C356.682 13.3758 356.88 13.24 357.099 13.1464C357.318 13.0528 357.553 13.0032 357.791 13.0005Z" fill="url(#paint0_linear_16_319)"/>
<path d="M365.458 18.0405H368.095L372.332 29.958H369.842L368.908 27.1155H364.55L363.634 29.958H361.156L365.458 18.0405ZM368.347 25.2795L366.997 20.967C366.886 20.6504 366.803 20.3247 366.749 19.9935H366.695C366.645 20.3358 366.564 20.6728 366.452 21L365.084 25.2885L368.347 25.2795Z" fill="white"/>
<g clip-path="url(#clip0_16_319)">
<path fill-rule="evenodd" clip-rule="evenodd" d="M474.6 37.92H458.76V43.68H460.92V45.12C0 0 0 0 460.92 45.12H445.08C0 0 0 0 445.08 45.12L447.24 43.68V37.92H431.4C430.763 37.92 430.153 37.6671 429.703 37.217C429.253 36.7669 429 36.1565 429 35.52V31.2H477V35.52C477 36.1565 476.747 36.7669 476.297 37.217C475.847 37.6671 475.237 37.92 474.6 37.92Z" fill="#BDC3C7"/>
<path fill-rule="evenodd" clip-rule="evenodd" d="M447.24 37.9199H458.76V38.8799H447.24V37.9199Z" fill="#95A5A5"/>
<path fill-rule="evenodd" clip-rule="evenodd" d="M431.4 1.08274e-06H474.6V4.8C474.125 4.8 473.661 4.65924 473.267 4.39553C472.872 4.13181 472.564 3.75698 472.383 3.31844C472.201 2.8799 472.154 2.39734 472.246 1.93178C472.339 1.46623 472.567 1.03859 472.903 0.702945C473.239 0.367299 473.666 0.138721 474.132 0.0461164C474.597 -0.0464881 475.08 0.00103988 475.518 0.18269C475.957 0.364341 476.332 0.671955 476.596 1.06663C476.859 1.46131 477 1.92533 477 2.4V31.2H429V2.4C429 1.92533 429.141 1.46131 429.404 1.06663C429.668 0.671955 430.043 0.364341 430.482 0.18269C430.92 0.00103988 431.403 -0.0464881 431.868 0.0461164C432.334 0.138721 432.761 0.367299 433.097 0.702945C433.433 1.03859 433.661 1.46623 433.754 1.93178C433.846 2.39734 433.799 2.8799 433.617 3.31844C433.436 3.75698 433.128 4.13181 432.733 4.39553C432.339 4.65924 431.875 4.8 431.4 4.8V1.08274e-06Z" fill="#2C3E50"/>
<path fill-rule="evenodd" clip-rule="evenodd" d="M431.4 2.40015H474.6V28.8001H431.4V2.40015Z" fill="#35495E"/>
</g>
<defs>
<linearGradient id="paint0_linear_16_319" x1="359.624" y1="11.67" x2="373.864" y2="36.3315" gradientUnits="userSpaceOnUse">
<stop stop-color="#B72C3F"/>
<stop offset="0.5" stop-color="#B12334"/>
<stop offset="1" stop-color="#9D1623"/>
</linearGradient>
<clipPath id="clip0_16_319">
<rect width="48" height="48" fill="white" transform="translate(429)"/>
</clipPath>
</defs>
</svg>
