<svg width="164" height="40" viewBox="0 0 164 40" fill="none" xmlns="http://www.w3.org/2000/svg">
<path d="M8 27L1 20M8 13L1 20L8 13Z" stroke="RGB(87,83,78)" stroke-width="2" stroke-linecap="round"/>
<path d="M56 27L63 20M56 13L63 20L56 13Z" stroke="RGB(87,83,78)" stroke-width="2" stroke-linecap="round"/>
<path d="M32 35C40.2843 35 47 28.2843 47 20C47 11.7157 40.2843 5 32 5C23.7157 5 17 11.7157 17 20C17 28.2843 23.7157 35 32 35Z" stroke="RGB(87,83,78)" stroke-width="2"/>
<path d="M28 15.5C28 14.6716 27.3284 14 26.5 14C25.6716 14 25 14.6716 25 15.5V17.5C25 18.3284 25.6716 19 26.5 19C27.3284 19 28 18.3284 28 17.5V15.5Z" fill="RGB(87,83,78)"/>
<path d="M39 15.5C39 14.6716 38.3284 14 37.5 14C36.6716 14 36 14.6716 36 15.5V17.5C36 18.3284 36.6716 19 37.5 19C38.3284 19 39 18.3284 39 17.5V15.5Z" fill="RGB(87,83,78)"/>
<path fill-rule="evenodd" clip-rule="evenodd" d="M32 30C37 30 41.545 25.495 41.024 24.5C40.5 23.5 38 27 32 27C26 27 24 23.5 23.5 24.5C23 25.5 27 30 32 30Z" fill="RGB(87,83,78)"/>
<path d="M79 2.5C79 1.67157 78.3284 1 77.5 1C76.6716 1 76 1.67157 76 2.5C76 3.32843 76.6716 4 77.5 4C78.3284 4 79 3.32843 79 2.5Z" fill="RGB(87,83,78)"/>
<path d="M94.596 8.404C93.687 7.49491 92.5288 6.87579 91.2679 6.62494C90.007 6.37409 88.7 6.50278 87.5123 6.99473C86.3245 7.48669 85.3094 8.31981 84.5951 9.38874C83.8808 10.4577 83.4996 11.7144 83.4996 13C83.4996 14.2856 83.8808 15.5423 84.5951 16.6113C85.3094 17.6802 86.3245 18.5133 87.5123 19.0053C88.7 19.4972 90.007 19.6259 91.2679 19.3751C92.5288 19.1242 93.687 18.5051 94.596 17.596M77.5 7.5V19.5V7.5Z" stroke="RGB(87,83,78)" stroke-width="3" stroke-linecap="round"/>
<path d="M106 19.5C109.59 19.5 112.5 16.5899 112.5 13C112.5 9.41015 109.59 6.5 106 6.5C102.41 6.5 99.5 9.41015 99.5 13C99.5 16.5899 102.41 19.5 106 19.5Z" stroke="RGB(87,83,78)" stroke-width="3"/>
<path d="M129.5 19.5V12C129.5 10.5413 128.921 9.14236 127.889 8.11091C126.858 7.07946 125.459 6.5 124 6.5C122.541 6.5 121.142 7.07946 120.111 8.11091C119.079 9.14236 118.5 10.5413 118.5 12V19.5" stroke="RGB(87,83,78)" stroke-width="3" stroke-linecap="round"/>
<path d="M137 2.5C137 1.67157 136.328 1 135.5 1C134.672 1 134 1.67157 134 2.5C134 3.32843 134.672 4 135.5 4C136.328 4 137 3.32843 137 2.5Z" fill="RGB(87,83,78)"/>
<path d="M135.5 7.5V19.5" stroke="RGB(87,83,78)" stroke-width="3" stroke-linecap="round"/>
<path d="M146 2.5C143.5 2.5 141.5 4.5 141.5 7V19.5M145 11.5H147.5" stroke="RGB(87,83,78)" stroke-width="3" stroke-linecap="round"/>
<path d="M154.5 22.5H158.5C160.5 22.5 162.5 20.5 162.5 18.5V6.5" stroke="RGB(87,83,78)" stroke-width="3" stroke-linecap="round"/>
<path d="M153.5 6.5V11.5C153.5 14 155 15.5 157.5 15.5H159" stroke="RGB(87,83,78)" stroke-width="3" stroke-linecap="round"/>
<path d="M74 38C74.5523 38 75 37.5523 75 37C75 36.4477 74.5523 36 74 36C73.4477 36 73 36.4477 73 37C73 37.5523 73.4477 38 74 38Z" fill="RGB(87,83,78)"/>
<path fill-rule="evenodd" clip-rule="evenodd" d="M80 37C81.3261 37 82.5979 36.4732 83.5355 35.5355C84.4732 34.5979 85 33.3261 85 32C85 30.6739 84.4732 29.4021 83.5355 28.4645C82.5979 27.5268 81.3261 27 80 27H77V37H80Z" stroke="RGB(87,83,78)" stroke-width="2" stroke-linejoin="round"/>
<path d="M95 37H91C90 37 89 36 89 35V29C89 28 90 27 91 27H95M91 32H94" stroke="RGB(87,83,78)" stroke-width="2" stroke-linecap="round"/>
<path d="M104 29.5C104 29.0055 103.853 28.5222 103.579 28.1111C103.304 27.7 102.914 27.3795 102.457 27.1903C102 27.0011 101.497 26.9516 101.012 27.048C100.527 27.1445 100.082 27.3826 99.7322 27.7322C99.3826 28.0819 99.1445 28.5273 99.048 29.0123C98.9516 29.4972 99.0011 29.9999 99.1903 30.4567C99.3795 30.9135 99.7 31.304 100.111 31.5787C100.522 31.8534 101.006 32 101.5 32C101.994 32 102.478 32.1466 102.889 32.4213C103.3 32.696 103.62 33.0865 103.81 33.5433C103.999 34.0001 104.048 34.5028 103.952 34.9877C103.856 35.4727 103.617 35.9181 103.268 36.2678C102.918 36.6174 102.473 36.8555 101.988 36.952C101.503 37.0484 101 36.9989 100.543 36.8097C100.086 36.6205 99.696 36.3 99.4213 35.8889C99.1466 35.4778 99 34.9945 99 34.5" stroke="RGB(87,83,78)" stroke-width="2" stroke-linecap="round"/>
<path d="M108 37V30" stroke="RGB(87,83,78)" stroke-width="2" stroke-linecap="round"/>
<path d="M108 28C108.552 28 109 27.5523 109 27C109 26.4477 108.552 26 108 26C107.448 26 107 26.4477 107 27C107 27.5523 107.448 28 108 28Z" fill="RGB(87,83,78)"/>
<path d="M121 29C120.848 28.82 120.71 28.638 120.536 28.464C119.815 27.7435 118.892 27.2604 117.889 27.0793C116.886 26.8983 115.852 27.0279 114.925 27.4509C113.998 27.874 113.222 28.5701 112.702 29.4462C112.182 30.3223 111.941 31.3365 112.013 32.353C112.085 33.3694 112.466 34.3396 113.105 35.1336C113.743 35.9276 114.609 36.5076 115.587 36.7957C116.564 37.0838 117.606 37.0665 118.574 36.7459C119.541 36.4253 120.387 35.8169 120.999 35.002V33M125 37V27L132 37V27" stroke="RGB(87,83,78)" stroke-width="2" stroke-linecap="round" stroke-linejoin="round"/>
</svg>
