<svg width="550" height="492" viewBox="0 0 550 492" fill="none" xmlns="http://www.w3.org/2000/svg">
<g clip-path="url(#clip0_55_2)">
<path d="M139.839 55.0515L104.566 77.0924C94.8261 83.1789 91.864 96.009 97.9505 105.749L119.991 141.022C126.078 150.763 138.908 153.725 148.648 147.638L183.921 125.597C193.662 119.511 196.624 106.681 190.537 96.9404L168.496 61.6675C162.41 51.9271 149.58 48.9651 139.839 55.0515Z" stroke="white" stroke-width="16" stroke-linecap="round" stroke-linejoin="round"/>
<path d="M541.036 147.675L505.763 169.716C496.023 175.802 493.061 188.633 499.147 198.373L521.188 233.646C527.275 243.386 540.105 246.348 549.845 240.262L585.118 218.221C594.858 212.134 597.821 199.304 591.734 189.564L569.693 154.291C563.607 144.551 550.777 141.589 541.036 147.675Z" stroke="white" stroke-width="16" stroke-linecap="round" stroke-linejoin="round"/>
<path d="M179.517 79.304L302.972 2.16064" stroke="white" stroke-width="16" stroke-linecap="round" stroke-linejoin="round"/>
<path d="M386.713 293.153L510.168 216.009" stroke="white" stroke-width="16" stroke-linecap="round" stroke-linejoin="round"/>
<path d="M380.097 321.81C389.837 315.723 392.799 302.893 386.713 293.153C380.626 283.412 367.796 280.45 358.056 286.537C348.315 292.623 345.353 305.453 351.44 315.194C357.526 324.934 370.356 327.896 380.097 321.81Z" stroke="white" stroke-width="16" stroke-linecap="round" stroke-linejoin="round"/>
<path d="M331.629 8.7765C341.369 2.69006 344.331 -10.1401 338.245 -19.8804C332.158 -29.6208 319.328 -32.5828 309.588 -26.4964C299.847 -20.4099 296.885 -7.57979 302.972 2.16054C309.058 11.9009 321.888 14.8629 331.629 8.7765Z" stroke="white" stroke-width="16" stroke-linecap="round" stroke-linejoin="round"/>
<path d="M185.027 88.1221C196.607 80.886 209.927 76.6859 224.226 75.7616C238.524 74.8373 253.522 77.2069 268.362 82.7352C283.202 88.2635 297.595 96.8422 310.717 107.981C323.839 119.121 335.435 132.602 344.842 147.657C363.841 178.06 391.351 201.413 421.322 212.578C451.294 223.743 481.27 221.805 504.658 207.191" stroke="white" stroke-width="16" stroke-linecap="round" stroke-linejoin="round"/>
</g>
<g clip-path="url(#clip1_55_2)">
<path d="M108.182 397.998L87.0517 406.321C81.2168 408.62 78.35 415.213 80.6484 421.048L88.9717 442.178C91.2701 448.012 97.8634 450.879 103.698 448.581L124.828 440.258C130.663 437.959 133.53 431.366 131.231 425.531L122.908 404.401C120.61 398.566 114.016 395.699 108.182 397.998Z" stroke="white" stroke-width="14" stroke-linecap="round" stroke-linejoin="round"/>
<path d="M256.091 339.735L234.961 348.058C229.126 350.357 226.259 356.95 228.558 362.785L236.881 383.915C239.179 389.75 245.773 392.616 251.607 390.318L272.737 381.995C278.572 379.696 281.439 373.103 279.141 367.268L270.817 346.138C268.519 340.303 261.926 337.437 256.091 339.735Z" stroke="white" stroke-width="14" stroke-linecap="round" stroke-linejoin="round"/>
<path d="M314.354 487.644L293.224 495.967C287.389 498.266 284.522 504.859 286.821 510.694L295.144 531.824C297.442 537.659 304.036 540.526 309.87 538.227L331 529.904C336.835 527.605 339.702 521.012 337.404 515.177L329.08 494.047C326.782 488.213 320.189 485.346 314.354 487.644Z" stroke="white" stroke-width="14" stroke-linecap="round" stroke-linejoin="round"/>
<path d="M114.263 444.419L155.88 550.069" stroke="white" stroke-width="14" stroke-linecap="round" stroke-linejoin="round"/>
<path d="M262.172 386.156L303.789 491.806" stroke="white" stroke-width="14" stroke-linecap="round" stroke-linejoin="round"/>
<path d="M127.07 414.966L232.719 373.35" stroke="white" stroke-width="14" stroke-linecap="round" stroke-linejoin="round"/>
</g>
<defs>
<clipPath id="clip0_55_2">
<rect width="499.116" height="499.116" fill="white" transform="translate(0.959229 68.265) rotate(-32)"/>
</clipPath>
<clipPath id="clip1_55_2">
<rect width="272.521" height="272.521" fill="white" transform="translate(32.307 391.273) rotate(-21.5)"/>
</clipPath>
</defs>
</svg>
