<svg width="352" height="48" viewBox="0 0 352 48" fill="none" xmlns="http://www.w3.org/2000/svg">
<path d="M15.0411 41.9927C16.2835 41.9698 17.2721 40.9441 17.2491 39.7017C17.2262 38.4593 16.2005 37.4707 14.9581 37.4937C13.7157 37.5166 12.7271 38.5423 12.75 39.7847C12.773 41.0271 13.7987 42.0157 15.0411 41.9927Z" fill="#424242"/>
<path d="M38.2982 39.7993C38.3278 38.557 37.3448 37.5259 36.1025 37.4963C34.8602 37.4667 33.8292 38.4498 33.7996 39.6921C33.77 40.9343 34.753 41.9654 35.9953 41.995C37.2376 42.0246 38.2686 41.0415 38.2982 39.7993Z" fill="#424242"/>
<path d="M43.4812 12.3915C43.4156 12.1665 43.2187 12.0165 42.9937 11.9978L12.4593 9.04466C12.1968 9.01654 11.8781 8.84779 11.7562 8.60404C11.4 7.93841 11.175 7.56341 10.6125 6.86029C9.89059 5.97904 8.53121 6.00716 6.03746 5.98841C5.19371 5.97904 4.50934 6.47591 4.50934 7.31029C4.50934 8.12591 5.15621 8.63216 5.97184 8.63216C6.78746 8.63216 7.96871 8.67904 8.40934 8.81029C8.84996 8.94154 9.20621 9.66341 9.33746 10.2915C9.33746 10.3009 9.33746 10.3103 9.34684 10.3197C9.36559 10.4322 9.53434 11.2759 9.53434 11.2853L13.2843 31.1228C13.5093 32.4822 13.9687 33.6072 14.6437 34.4697C15.4312 35.4822 16.4718 35.9884 17.7281 35.9884H39.9093C40.6218 35.9884 41.2312 35.4447 41.2593 34.7322C41.2968 33.9822 40.6968 33.3634 39.9468 33.3634H17.7093C17.5218 33.3634 17.25 33.3634 16.9312 33.1009C16.6031 32.8197 16.1531 32.1728 15.8531 30.6634L15.45 28.4415C15.45 28.4134 15.4593 28.3947 15.4875 28.3853L41.5218 23.979C41.7656 23.9415 41.9531 23.7447 41.9812 23.4915L43.4812 12.6353C43.5 12.5603 43.5 12.4759 43.4812 12.3915Z" fill="#424242"/>
<path d="M111.32 15.9992L100 4.69922L88.6802 15.9992C85.6939 18.995 84.0118 23.0492 84.0002 27.2792C84.0002 31.2792 85.5602 35.4992 88.6802 38.6192C90.1649 40.1092 91.929 41.2915 93.8716 42.0982C95.8142 42.9049 97.8968 43.3201 100 43.3201C102.104 43.3201 104.186 42.9049 106.129 42.0982C108.071 41.2915 109.836 40.1092 111.32 38.6192C114.44 35.4992 116 31.2792 116 27.2792C116 23.2792 114.44 19.1192 111.32 15.9992ZM88.0002 27.9992C88.0002 23.9992 89.2402 21.4592 91.5202 19.1992L100 10.5392L108.48 19.2992C110.76 21.5392 112 23.9992 112 27.9992H88.0002Z" fill="#424242"/>
<path d="M164 43.9961C162.409 43.9961 160.883 43.364 159.757 42.2387C158.632 41.1135 158 39.5874 158 37.9961C158 36.7961 158.36 35.6761 159 34.7361L170 15.6161V11.9961C169.47 11.9961 168.961 11.7854 168.586 11.4103C168.211 11.0352 168 10.5265 168 9.99609V7.99609C168 6.93523 168.421 5.91781 169.172 5.16767C169.922 4.41752 170.939 3.99609 172 3.99609H180C181.061 3.99609 182.078 4.41752 182.828 5.16767C183.579 5.91781 184 6.93523 184 7.99609V9.99609C184 10.5265 183.789 11.0352 183.414 11.4103C183.039 11.7854 182.53 11.9961 182 11.9961V15.6161L193 34.7361C193.64 35.6761 194 36.7961 194 37.9961C194 39.5874 193.368 41.1135 192.243 42.2387C191.117 43.364 189.591 43.9961 188 43.9961H164ZM162 37.9961C162 38.5265 162.211 39.0352 162.586 39.4103C162.961 39.7854 163.47 39.9961 164 39.9961H188C188.53 39.9961 189.039 39.7854 189.414 39.4103C189.789 39.0352 190 38.5265 190 37.9961C190 37.5761 189.86 37.1761 189.64 36.8561L185.06 28.9361L180 33.9961L169.86 23.8561L162.36 36.8561C162.14 37.1761 162 37.5761 162 37.9961ZM178 19.9961C177.47 19.9961 176.961 20.2068 176.586 20.5819C176.211 20.957 176 21.4657 176 21.9961C176 22.5265 176.211 23.0352 176.586 23.4103C176.961 23.7854 177.47 23.9961 178 23.9961C178.53 23.9961 179.039 23.7854 179.414 23.4103C179.789 23.0352 180 22.5265 180 21.9961C180 21.4657 179.789 20.957 179.414 20.5819C179.039 20.2068 178.53 19.9961 178 19.9961Z" fill="#424242"/>
<path d="M272.842 26.6587C272.711 25.3312 272.092 25.455 271.526 25.9237C271.526 25.9237 266.76 30.7987 265.642 31.6275C264.664 32.3512 265.117 33.045 265.65 33.33C265.65 33.33 265.894 33.4838 266.4 33.735C264.945 35.5838 262.166 37.7625 256.95 38.5275C256.369 38.6138 255.84 38.1712 255.814 37.5863L254.602 22.1437L259.387 21.3412C260.059 21.2288 260.55 20.6475 260.55 19.9688C260.55 19.29 260.059 18.7087 259.387 18.5963L254.257 17.7375L253.841 12.45C256.091 11.7188 257.722 9.60375 257.722 7.11375C257.722 4.01625 255.202 1.5 252.109 1.5C249.015 1.5 246.495 4.01625 246.495 7.11375C246.495 9.6075 248.134 11.7262 250.387 12.4537L250.035 17.7262L244.826 18.6C244.155 18.7125 243.664 19.2938 243.664 19.9725C243.664 20.6512 244.155 21.2325 244.826 21.345L249.739 22.1663L248.7 37.74C248.694 37.8789 248.659 38.0151 248.597 38.1396C248.535 38.2641 248.448 38.3743 248.341 38.463C248.234 38.5517 248.109 38.617 247.976 38.6546C247.842 38.6922 247.701 38.7013 247.564 38.6813C242.044 37.8675 239.156 35.43 237.69 33.4762C238.29 33.09 238.586 32.8237 238.586 32.8237C239.119 32.5425 239.569 31.845 238.594 31.1213C237.476 30.2925 232.335 25.9237 232.335 25.9237C231.769 25.4512 231.15 25.3275 231.019 26.6587C230.899 27.8737 230.801 31.2563 231.772 34.965C231.915 35.5125 232.196 35.7562 233.036 35.5125C233.666 35.3325 234.236 35.1338 234.757 34.935C237.896 40.9313 243.54 46.5 252.109 46.5C260.651 46.5 266.621 41.025 269.617 35.0325C270.094 35.1938 270.607 35.355 271.177 35.52C272.017 35.7638 272.299 35.5163 272.441 34.9725C273.416 31.26 272.962 27.8737 272.842 26.6587ZM249.525 7.11375C249.525 5.68875 250.684 4.53 252.109 4.53C253.534 4.53 254.692 5.68875 254.692 7.11375C254.692 8.53875 253.534 9.6975 252.109 9.6975C250.684 9.6975 249.525 8.53875 249.525 7.11375Z" fill="#82AEC0"/>
<path d="M249.6 7.94618C249.596 7.68368 249.525 7.38368 249.525 7.11368C249.525 5.79743 250.515 4.70993 251.79 4.55243C251.79 4.55243 251.902 4.53368 251.932 4.52993C252.349 4.46243 252.506 4.29368 252.506 3.98993C252.506 3.68618 252.176 3.48743 251.966 3.46493C250.744 3.34493 249.521 4.02368 248.94 4.96493C248.31 5.97743 248.231 6.93743 248.572 7.85243C248.704 8.20118 248.977 8.33618 249.184 8.31368C249.375 8.29493 249.604 8.20493 249.6 7.94618Z" fill="#2F7889"/>
<path d="M252.109 42.5325C252.109 42.5325 250.342 39.135 247.567 38.685C242.167 37.8075 239.28 35.5275 237.787 33.6L237.626 33.5288L233.842 28.6875C233.842 28.6875 236.981 41.3625 252.109 42.5325Z" fill="#94D1E0"/>
<path opacity="0.89" d="M256.875 42.3713C253.86 43.2488 252.656 46.4701 252.656 46.4701C252.656 46.4701 255.679 46.3838 258.409 45.4126C263.632 43.5263 267.424 39.4163 269.618 35.0288C269.618 35.0251 270.574 32.4488 270.773 30.4763C270.776 30.4801 268.774 38.9063 256.875 42.3713Z" fill="#2F7889"/>
<path d="M243.682 19.8261H251.482C251.715 19.8261 251.831 19.5449 251.666 19.3836L250.009 17.7336L244.834 18.5999C244.207 18.7011 243.746 19.2111 243.682 19.8261Z" fill="#94D1E0"/>
<path d="M260.539 20.1074L252.945 19.8449C252.709 19.8374 252.585 20.1224 252.754 20.2874L254.614 22.1324L259.388 21.3374C260.01 21.2324 260.471 20.7224 260.539 20.1074Z" fill="#2F7889"/>
<path d="M349.267 20.6V19.8C348.8 8.8 339.733 0 328.667 0C317.533 0 308.467 8.8 308.067 19.8V21.7333C308.733 36.8667 322.733 48 328.667 48C334.533 48 348.533 36.8667 349.267 21.7333C349.2 21.4 349.267 21 349.267 20.6Z" fill="#597B91"/>
<path d="M321.533 22.2668C320.667 19.9334 318.2 18.5334 315.733 19.2001C313.267 19.8668 311.8 22.2668 312.2 24.8001H312.133L313.933 31.4001C314.6 34.0001 317.333 35.5334 319.933 34.8667C322.533 34.2001 324.067 31.4667 323.4 28.8667L321.533 22.2668Z" fill="#2B3B47"/>
<path d="M345.067 24.7334C345.533 22.2668 344 19.8001 341.533 19.1334C339.067 18.4668 336.533 19.8668 335.733 22.2001H335.667L333.867 28.8001C333.2 31.4001 334.733 34.0668 337.333 34.8001C339.933 35.4668 342.6 33.9334 343.333 31.3334L345.067 24.7334Z" fill="#2B3B47"/>
<path d="M328.667 43C326.533 43 324.667 41.9333 323.6 40.1333C323.467 39.8667 323.467 39.6 323.6 39.3333C323.733 39.0667 324 38.9333 324.333 38.9333H333.133C333.4 38.9333 333.667 39.0667 333.867 39.3333C334 39.6 334 39.8667 333.867 40.1333C332.667 41.9333 330.733 43 328.667 43Z" fill="#2B3B47"/>
</svg>
