<svg width="445" height="221" viewBox="0 0 445 221" fill="none" xmlns="http://www.w3.org/2000/svg">
<g clip-path="url(#clip0_19_628)">
<path d="M336.833 13.2437C339.795 13.8446 342.645 14.1059 343.118 18.3392C343.359 20.4953 346.271 20.7159 348.42 20.7741C352.275 20.8791 353.284 21.5017 353.054 24.9361C352.869 27.7096 353.766 28.5303 356.361 28.7586C359.779 29.0591 362.981 30.0325 366.577 28.6509C369.814 27.4083 371.665 29.0487 373.202 32.9433C373.528 33.7682 373.994 34.8684 374.959 34.2736C379.357 31.5626 384.608 33.6744 389.32 31.2821C392.45 29.693 396.909 30.4129 400.05 33.4278C401.568 34.8858 403.37 35.5865 405.254 34.3048C407.252 32.9459 408.907 34.1963 409.935 35.2531C413.201 38.6093 416.889 37.6116 420.637 36.8978C421.138 36.8022 421.624 36.6216 422.117 36.4809C424.153 35.8983 422.245 40.5657 424.526 38.5763C425.735 37.5221 426.581 37.3016 427.948 37.1357C434.177 36.3794 438.771 39.9092 443.547 43.0379L441.262 48.4001C441.097 48.3581 440.931 48.3196 440.764 48.2846C439.409 48.0023 438.173 45.6335 437.764 46.2813C436.919 47.6185 435.22 48.7622 435.441 50.6326C435.724 53.0328 434.536 53.5998 432.409 53.7014C430.514 53.7917 428.578 54.1269 427.111 55.6231C425.916 56.8431 424.5 56.8674 422.805 56.8023C418.427 56.6338 416.07 58.7109 415.522 63.1457C414.96 67.6941 410.709 69.3266 408.46 72.53C407.734 73.5651 407.082 72.2235 406.691 71.5331C404.907 68.3741 406.013 65.4373 407.604 62.6655C408.374 61.3247 409.612 60.2584 410.589 59.0279C411.181 58.282 412.723 57.8026 412.021 56.6425C411.4 55.6161 409.972 55.3374 408.734 55.3695C407.188 55.4103 406.141 56.4697 405.429 57.6724C404.187 59.7686 402.723 59.4603 400.571 59.0748C394.961 58.0701 389.152 57.4822 385.245 63.1075C384.21 64.5967 381.009 64.8138 381.985 67.2322C382.904 69.5081 385.733 68.0024 387.65 68.592C389.065 69.0271 390.974 68.539 391.037 70.4434C391.105 72.4962 393.196 74.7938 390.864 76.6226C390.14 77.1905 389.486 77.5361 389.388 78.5026C389.338 78.9898 389.355 79.727 388.758 79.7252C388.194 79.7235 388.256 78.9958 388.198 78.5278C388.155 78.1822 388.185 77.8288 388.145 77.4823C388.034 76.5106 388.462 75.4564 387.707 74.582C387.443 75.5658 387.353 76.6426 386.886 77.5187C384.664 81.7016 382.295 85.6527 377.1 86.9118C372.34 88.065 371.868 89.0384 373.012 93.8404C373.429 95.591 373.439 97.082 371.56 97.7011C369.743 98.2994 369.178 96.614 368.551 95.4469C368.068 94.5473 367.797 93.4896 367.639 92.471C367.409 90.9792 366.58 90.8446 365.416 91.2718C364.51 91.6044 363.549 92.7315 362.723 91.396C362.152 90.4747 361.789 89.8651 360.966 91.0209C360.473 91.713 359.697 92.5657 359.794 93.2395C360.003 94.7053 361.091 93.5191 361.799 93.5877C363.821 93.7857 365.727 94.0263 363.069 96.4082C361.864 97.4884 362.225 98.9021 362.501 100.312C363.912 107.514 360.823 112.835 353.981 115.277C352.271 115.887 350.136 115.783 349.398 118.191C348.928 119.725 348.225 119.595 347.542 118.059C346.716 116.202 345.481 117.39 344.554 118.038C343.296 118.919 343.276 120.021 344.443 121.078C344.961 121.547 345.515 121.98 345.999 122.481C349.303 125.898 348.14 130.681 343.645 132.466C342.406 132.958 342.215 132.112 341.719 131.409C340.369 129.496 338.04 127.238 336.307 128.805C334.07 130.826 336.435 133.227 338.215 134.929C339.523 136.18 341.064 137.686 340.732 139.312C339.972 143.03 343.269 145.292 343.478 148.585C343.573 150.07 345.004 150.292 346.196 150.622C349.691 151.591 352.945 153.591 356.807 152.99C357.471 152.886 358.447 153.153 358.496 153.867C358.565 154.879 357.513 154.587 356.898 154.643C352.492 155.038 347.982 154.296 344.02 153.031C340.964 152.056 338.38 148.545 336.395 145.615C334.746 143.175 332.938 140.846 330.983 138.643C330.411 138 329.342 137.594 330.033 136.62C330.813 135.523 331.951 135.954 332.759 136.665C333.932 137.698 334.956 138.9 336.057 140.015C336.422 140.385 336.945 140.79 337.386 140.417C337.904 139.982 337.35 139.507 337.079 139.129C334.211 135.12 333.136 130.674 333.53 125.773C333.677 123.946 333.378 122.118 330.664 122.703C328.33 123.207 328.391 120.981 327.581 119.835C324.178 115.024 322.914 114.901 318.543 118.801C317.539 119.696 316.439 120.483 315.341 121.261C311.566 123.939 310.571 127.904 312.511 132.307C312.908 133.209 313.881 134.208 312.806 135.121C311.815 135.964 310.98 134.898 310.036 134.576C305.68 133.089 304.039 129.462 303.44 125.561C302.548 119.749 298.169 116.389 295.039 112.132C294.236 111.038 293.037 110.807 291.778 110.786C290.206 110.758 288.62 110.619 287.064 110.771C286.095 110.865 285.173 110.725 284.263 110.526C282.713 110.187 281.793 112.178 283.058 113.135C283.661 113.592 284.316 114.008 284.874 114.503C285.878 115.394 284.844 115.934 284.552 116.69C282.706 121.47 278.102 122.7 274.147 124.516C271.673 125.651 269.331 127.367 266.437 127.537C265.9 127.568 265.366 127.851 265.366 128.464C265.366 129.291 266.021 129.691 266.718 129.753C268.49 129.913 270.051 128.947 271.746 128.677C274.107 128.302 275.245 129.902 274.193 132.046C272.116 136.277 269.446 140.18 265.622 143.155C259.766 147.712 259.208 149.573 261.404 156.397C263.125 161.745 262.923 162.552 258.255 166.09C256.474 167.44 254.948 168.677 255.834 171.233C256.184 172.244 256.27 173.625 255.432 174.203C252.084 176.513 250.988 180.357 248.885 183.483C245.505 188.508 240.325 188.267 235.341 188.645C233.779 188.764 232.602 187.217 232.444 186.007C231.873 181.654 229.713 177.692 228.215 173.853C225.911 167.945 224.182 162.852 226.491 156.624C227.153 154.836 226.28 151.882 225.103 150.146C223.13 147.236 222.192 144.304 222.283 140.881C222.312 139.791 221.718 138.432 220.618 138.592C217.618 139.028 215.184 136.267 212.671 136.832C209.85 137.467 206.762 136.912 204.17 138.523C202.43 139.605 200.889 139.17 199.304 138.129C195.323 135.515 193.068 131.239 189.595 128.137C189.231 127.812 189.011 127.172 189.098 126.692C190.292 120.086 188.008 112.488 194.247 107.305C197.281 104.785 198.478 100.924 201.397 98.3411C202.622 97.2566 202.679 95.7882 200.816 95.0622C199.574 94.5777 198.279 93.8804 198.684 92.5405C199.357 90.3079 198.06 87.9547 199.193 85.9114C200.21 84.0783 202.184 84.4109 203.914 84.503C209.069 84.7774 209.54 84.3823 208.624 79.1304C208.236 76.9057 208.766 75.868 210.669 74.4925C212.876 72.8965 214.984 71.0408 217.228 69.4578C220.836 66.91 221.244 65.9201 218.667 62.0507C217.86 60.8402 217.337 59.6557 217.019 58.2924C216.134 54.4942 216.73 52.8599 220.319 51.1753C222.823 50.0004 224.7 48.4626 225.802 45.8931C227.715 41.4289 231.4 38.8985 235.762 37.2208C237.552 36.5322 239.423 36.052 241.225 35.3912C244.437 34.2137 247.18 33.6692 250.091 36.7475C252.008 38.7734 255.664 38.4617 258.201 40.1046C259.064 40.6638 260.404 40.7602 260.944 41.4949C263.056 44.3665 264.604 45.8531 265.803 40.8853C266.078 39.7451 267.903 39.3648 268.887 40.5353C270.382 42.3146 271.728 41.8978 273.424 40.9191C276.27 39.2779 279.571 40.1098 282.636 39.5133C285.888 38.8802 283.754 37.4796 283.335 36.2717L283.393 36.1996C285.952 36.7232 288.499 37.3198 291.074 37.7401C292.437 37.9624 293.397 37.9954 293.821 35.8635C294.739 31.2361 296.819 30.3634 301.904 30.8418C303.724 31.0129 305.484 30.6994 307.327 31.5131C308.392 31.9828 310.301 31.7762 310.597 29.8866C311.009 27.2512 312.357 27.5907 314.344 28.1725C316.181 28.71 318.688 29.6296 318.662 25.9243C318.655 24.9535 319.857 24.7763 320.7 24.5922C324.407 23.7847 327.865 22.0844 331.861 22.2624C335.531 22.4257 336.521 19.9917 334.548 16.4965C335.63 15.6403 336.252 14.4568 336.833 13.2437ZM219.241 85.4104C215.373 86.0929 212.748 88.4245 211.172 91.7842C210.402 93.4262 209.731 94.8989 208.029 95.7074C207.461 95.9766 206.31 95.822 206.449 96.5619C206.558 97.1385 207.719 97.0177 208.341 96.8007C211.46 95.7143 214.564 94.6975 217.906 94.4075C219.732 94.2486 221.372 94.5108 222.963 95.2385C224.527 95.954 224.327 97.432 224.413 98.8352C224.48 99.9259 225.335 100.835 226.427 100.892C229.928 101.071 233.264 104.037 236.973 101.452C237.545 101.054 238.788 101.136 239.485 101.478C243.343 103.37 247.468 102.057 251.433 102.601C253.374 102.868 254.064 100.969 254.436 99.5603C254.891 97.8375 253.492 97.8027 252.149 97.7098C250.986 97.6291 249.779 96.6565 248.723 96.8371C245.083 97.4589 243.48 95.9488 243.25 92.458C243.204 91.7529 242.775 91.0808 241.898 91.2015C241.308 91.2831 241.359 91.93 241.136 92.359C239.847 94.8373 236.51 95.2628 234.915 93.1544C234.43 92.5153 234.388 90.8194 233.685 91.172C230.061 92.9886 228.459 89.6272 226.044 88.4601C224.459 87.6933 223.473 87.412 223.314 89.7114C223.23 90.9349 222.545 92.4797 221.164 92.0733C219.18 91.4898 220.94 90.1152 221.026 89.0775C221.157 87.5222 222.283 85.4521 219.241 85.4104ZM233.068 66.3603C235.483 66.4862 235.283 66.3595 236.264 64.8147C238.568 61.1858 237.655 57.5986 236.452 53.9845C236.114 52.9676 236.249 51.0894 234.383 51.7537C232.963 52.2599 232.074 53.9115 232.995 55.1611C236.105 59.3883 232.012 61.4289 230.339 63.9854C229.292 65.584 227.189 67.2052 225.412 64.186C225.152 63.744 224.554 63.3862 224.133 63.803C223.831 64.1017 223.711 64.7817 223.796 65.2393C224.35 68.2386 226.715 67.5995 228.737 67.6047C230.296 67.609 231.284 65.6014 233.068 66.3603ZM261.806 87.4623C261.069 84.5924 256.994 84.8407 256.392 81.5479C256.255 80.7968 255.227 82.7011 254.496 83.2534C253.339 84.1278 252.17 84.3892 251.453 82.9512C250.866 81.7746 250.235 81.0677 249.215 82.1419C248.048 83.3698 246.667 84.6376 246.891 86.62C247.034 87.88 248.004 88.599 249.069 88.3672C252.414 87.6395 255.511 88.1066 258.669 89.3484C259.992 89.8677 261.441 89.2442 261.806 87.4623ZM258.509 114.704C257.415 114.94 257.372 115.734 257.315 116.604C257.146 119.137 258.97 120.611 260.311 122.337C260.919 123.119 261.544 124.518 262.55 124.09C264.001 123.471 263.087 122.047 262.812 120.972C262.292 118.93 260.785 117.436 259.729 115.693C259.487 115.292 258.964 115.061 258.509 114.704Z" fill="#318DE1"/>
<path d="M-3.14386 70.0006C1.22705 67.3226 5.65271 64.7618 10.5451 63.1119C11.1691 62.9018 12.0366 62.5153 11.9688 61.7616C11.8905 60.8889 10.8363 61.2684 10.2835 60.9436C8.03155 59.6202 5.69704 58.4123 3.56243 56.9196C0.925457 55.0752 1.04801 53.5487 3.7632 51.8962C4.349 51.5393 5.03823 51.3543 5.67618 51.0799C6.40713 50.7647 7.8951 50.9818 7.60306 49.9041C7.34667 48.9576 6.07512 49.8521 5.25725 49.806C4.56976 49.7678 3.83099 49.8069 3.2113 49.5646C2.01623 49.0974 0.96196 48.2074 1.17577 46.8493C1.44781 45.1203 2.98445 44.9866 4.42462 44.9701C5.06604 44.9623 5.98559 45.7134 6.27067 44.9111C6.53576 44.166 5.43717 44.0471 4.88352 43.6884C0.747283 41.0052 0.762927 40.3487 4.92959 37.9321C5.98386 37.3207 6.9712 36.5696 8.07761 36.0807C11.223 34.6914 14.179 33.8499 17.8911 35.1542C21.9143 36.5679 26.4391 36.4854 30.6831 37.3598C35.9483 38.4444 40.9476 38.4696 46.3172 37.1063C51.4747 35.7968 57.0033 36.7711 62.1764 38.5886C62.7979 38.8065 63.5948 39.3553 64.0781 38.6346C64.5153 37.9824 63.9816 37.2747 63.3967 36.8814C62.5232 36.2952 61.7245 35.8029 61.5028 34.5872C61.2516 33.2099 60.4364 32.9025 59.3734 34.0444C58.1132 35.3982 56.5965 35.3739 55.0495 34.7009C53.4659 34.0123 52.2552 33.0015 53.3512 31.0929C53.9648 30.0239 54.6366 29.0479 54.5627 27.7288C54.4584 25.8784 56.0777 25.4711 57.0007 26.0633C59.9705 27.9668 63.6939 26.9117 66.7107 29.2407C69.1912 31.1563 72.6165 31.7181 75.8888 29.7252C77.7775 28.5755 79.7704 28.3211 79.3576 31.7138C79.1977 33.0311 79.6401 34.4691 80.617 34.9857C83.2991 36.4038 85.5493 37.497 81.7312 40.2714C80.9307 40.8532 81.5261 41.9491 82.5221 42.2313C83.7094 42.5674 85.412 42.801 85.5485 41.2883C85.7084 39.516 86.3237 38.5538 87.7083 37.5318C89.9672 35.8645 89.5874 34.8468 86.6862 34.8164C84.3291 34.7912 83.5216 32.3511 81.7477 31.3794C83.8137 31.0078 84.6255 28.5321 86.8531 28.3793C88.0655 28.2959 89.2667 28.0336 90.4704 27.8357C92.1878 27.5534 93.3638 26.699 93.6167 24.8563C93.7453 23.922 93.6776 23.0606 92.5729 22.8409C90.9971 22.5282 89.6117 21.5922 88.1898 23.8716C86.1821 27.0889 82.204 24.3961 79.4236 25.8697L78.7031 23.9636C79.1386 23.5017 79.1872 23.0406 78.7014 22.5795C79.0586 20.7264 77.7123 19.0557 78.6119 16.9777C80.1207 13.4921 80.4996 13.1361 83.5416 15.0621C84.449 15.637 85.6102 16.2847 85.2556 17.4006C84.7802 18.8924 83.5155 17.6281 82.6116 17.6889C81.4896 17.7644 80.4092 17.8652 80.3971 19.2719C80.3849 20.6561 81.4079 20.9018 82.5656 20.8949C83.785 20.8879 85.0079 21.0077 86.2229 20.9426C88.4644 20.8228 89.7742 20.063 87.9725 17.7436C87.1885 16.7337 86.1821 15.6187 87.4745 14.5993C88.8199 13.5373 89.7534 15.0803 90.4052 15.9018C91.0562 16.7224 93.3394 16.7215 91.9879 18.9767C91.5786 19.6601 93.7453 20.1264 94.8518 20.399C95.3811 20.5293 95.9017 20.2063 96.0338 19.6166C96.3015 18.4192 95.7305 17.6211 94.7066 17.0784C94.5449 16.9955 94.3895 16.9009 94.2416 16.7953C87.7752 12.0472 87.8526 10.5579 94.7961 6.47489C95.9973 5.76662 97.299 5.2443 98.6569 4.92574C105.765 3.23244 113.049 2.74355 120.263 1.90038C123.278 1.54782 126.472 2.57943 129.564 3.10479C130.739 3.30451 132.793 3.78906 132.822 4.24668C132.906 5.57701 131.057 5.52838 130.23 6.37763C129.761 6.86044 128.886 7.20431 129.352 8.01536C129.885 8.94016 131.064 8.98445 131.574 8.30192C134.608 4.2406 138.84 5.26786 143.002 5.00909C146.389 4.79895 149.81 4.35349 153.291 3.15689C157.124 1.83872 161.696 1.45664 166.002 1.1119C166.865 1.0433 167.975 1.53306 168.578 1.14924C173.788 -2.16094 178.144 2.76526 183.008 2.5308C183.588 2.50302 184.034 2.99276 183.848 3.57369C183.709 4.00787 183.259 4.63136 182.905 4.66002C180.475 4.85887 178.033 4.91098 175.596 5.0421C175.093 5.06902 174.598 5.234 174.099 5.3356C174.395 6.18746 175.153 5.89657 175.703 5.8957C180.908 5.88354 186.104 6.61817 191.326 5.99295C192.594 5.84099 194.432 5.66037 194.681 7.56642C194.878 9.06607 193.282 9.35003 192.244 9.9188C188.514 11.9647 184.354 13.7639 187.212 19.3475C187.569 20.0447 186.642 20.6891 186.657 21.2309C186.798 26.046 182.585 29.8094 183.485 34.8294C183.738 36.2414 182.851 37.7141 181.414 38.157C178.275 39.1243 175.834 41.8883 172.25 41.6652C171.911 41.6443 171.491 41.6678 171.228 41.8475C166.097 45.3539 159.264 47.0177 157.545 54.2503C156.893 56.9969 155.283 57.3399 152.828 56.6383C148.938 55.5268 147.015 52.57 145.061 49.3779C143.037 46.0703 142.159 43.0762 145.259 39.9701C145.743 39.4856 145.71 38.8777 145.032 38.2447C143.486 36.7997 140.754 32.0654 140.343 30.4911C139.086 25.6613 134.273 21.7181 129.504 22.9911C124.234 24.3978 122.337 20.8931 119.691 18.1196C118.615 16.9925 119.558 16.204 120.531 15.7186C121.922 15.023 123.561 15.0274 124.909 14.0661C126.002 13.2872 126.076 12.622 125.519 11.4758C124.931 10.2661 124.211 10.6916 123.415 11.0103C118.679 12.9051 114.476 15.2262 112.921 20.7307C112.401 22.576 110.942 24.0817 110.464 26.1953C110.053 28.0137 107.56 27.5995 105.879 27.8721C105.267 27.972 104.205 27.3928 104.152 28.2403C104.112 28.869 105.385 28.5686 105.931 28.882C109.708 31.0477 114.393 29.7296 118.163 32.4571C121.165 34.6288 124.702 35.7673 126.163 39.8503C126.876 41.8432 129.639 42.5639 131.72 43.4375C132.692 43.8456 134.103 44.1608 133.041 45.4173C132.209 46.4012 131.815 48.7605 129.59 47.5882C128.84 47.1931 128.282 46.442 127.621 45.8723C127.237 45.5415 126.716 45.0995 126.289 45.4729C125.818 45.8845 126.277 46.3968 126.605 46.7694C127.066 47.2939 127.629 47.7376 128.037 48.2959C128.783 49.3154 130.737 50.2689 129.208 51.673C128.055 52.7333 126.602 54.4396 124.649 53.5243C120.802 51.7225 117.355 48.8204 112.641 49.6575C112.195 49.7366 111.756 49.1452 111.748 48.5764C111.738 47.9399 112.192 47.6794 112.76 47.6343C113.628 47.5648 114.546 47.6916 115.358 47.4502C117.587 46.7867 118.956 44.0349 118.162 42.0516C117.24 39.7478 111.653 37.0689 109.008 37.372C107.134 37.5873 108.357 38.3246 108.23 39.1209C107.873 41.3647 109.663 44.9206 104.883 45.1125C103.185 45.1811 104.529 46.5783 105.213 47.2114C106.456 48.3619 109.363 48.5434 109.022 50.2194C108.698 51.8171 105.864 49.4943 104.427 51.1216C103.829 51.7989 102.714 51.8692 102 51.2866C99.1957 49.001 97.5026 51.3734 95.7122 52.7906C90.3861 57.0073 90.606 59.338 96.7891 62.3147C98.1875 62.9877 99.4765 64.0002 100.973 64.3641C104.872 65.3132 108.194 66.7651 109.173 71.2215C109.346 72.0065 110.316 73.4289 111.489 72.3295C112.134 71.7243 112.138 70.7152 111.64 69.985C110.113 67.7446 110.402 66.258 113.021 65.1126C114.19 64.602 113.835 63.2569 113.345 62.3234C112.475 60.6649 112.809 58.9151 112.729 57.1932C112.526 52.7775 115.008 51.1615 118.988 53.2595C120.501 54.0575 122.242 54.9936 123.089 56.3561C124.511 58.6425 125.629 59.8278 128.381 58.1232C130.169 57.0151 131.442 58.7163 132.02 60.1004C133.284 63.1284 135.597 65.0787 137.951 67.1689C139.743 68.7606 142.579 70.1899 140.891 73.5965C140.345 74.6967 141.578 74.9398 142.253 75.3948C143.426 76.1859 144.524 77.0621 144.785 78.5713C144.905 79.2651 144.455 80.4886 144.37 80.4226C142.449 78.9369 140.156 80.3514 138.266 79.5942C136.992 79.0836 136.921 77.7342 137.398 76.4178C138.131 74.3954 137.069 74.4475 135.561 74.8208C134.558 75.0692 133.452 75.2281 132.445 75.0762C128.813 74.53 129.018 75.763 130.121 78.6564C131.101 81.2241 132.104 81.0236 133.931 79.9928C134.785 79.5109 135.685 79.6194 136.085 80.6206C136.464 81.5715 135.872 82.6838 135.146 82.8011C132.423 83.2422 130.2 86.5203 126.965 84.2156C125.991 83.5227 124.356 84.0489 124.189 84.8226C123.528 87.8931 120.938 88.7016 118.802 90.1109C118.399 90.3766 118.104 90.9211 117.927 91.3987C116.355 95.6346 114.108 99.26 110.383 102.107C108.49 103.554 108.368 106.07 110.31 108.149C111.264 109.17 111.533 110.578 110.249 111.313C108.976 112.04 108.797 110.215 108.033 109.651C107.219 109.049 106.53 108.175 106.014 107.289C104.492 104.677 102.155 104.395 99.6659 105.193C98.1423 105.681 96.6709 106.05 95.0829 106.051C91.9575 106.052 89.1676 105.898 89.8924 110.785C90.1627 112.608 87.5536 114.655 89.9402 116.982C91.6785 118.676 93.2491 119.481 95.4419 118.113C96.1815 117.652 96.8734 117.111 97.6217 116.664C98.7116 116.011 100.067 115.511 101.107 116.155C102.702 117.143 101.14 118.386 100.718 119.243C99.3626 122.005 99.6294 123.436 103.1 123.407C104.951 123.393 105.985 124.629 106.027 126.447C106.067 128.151 105.344 130.293 107.525 130.952C109.799 131.638 112.687 131.87 114.461 130.453C118.282 127.403 122.046 128.049 126.154 129.335C127.259 129.68 128.406 129.844 129.561 129.919C136.224 130.359 139.891 136.645 146.008 138.13C148.094 145.343 155.548 144.228 160.348 147.223C161.591 147.999 163.189 148.398 164.534 149.227C167.129 150.828 167.844 152.884 165.875 155.297C163.907 157.709 163.397 160.537 162.56 163.394C161.182 168.091 160.334 173.517 153.575 173.944C151.754 174.06 150.807 175.772 150.268 177.6C148.106 184.936 147.324 185.709 139.392 188.771C138.776 189.009 138.598 189.252 138.8 189.817C140.046 193.302 137.657 194.252 135.129 194.488C132.765 194.709 132.645 196.673 131.707 197.951C130.021 200.249 129.628 203.38 127.114 205.205C126.958 205.319 127.133 206.329 127.433 206.559C129.059 207.805 128.338 208.608 127.305 209.905C123.877 214.212 123.938 214.449 127.017 218.929C127.509 219.645 128.46 220.178 126.915 220.697C122.74 222.101 118.82 220.161 117.238 216.007C116.004 212.768 115.931 209.229 116.793 206.201C118.593 199.878 118.331 193.307 119.86 186.895C121.031 181.986 121.976 176.525 122.054 171.181C122.104 167.837 120.769 165.262 118.118 163.697C115.184 161.963 113.539 159.528 112.434 156.494C112.14 155.689 111.612 154.97 111.241 154.188C110.262 152.126 106.37 151.444 108.603 147.793C109.811 145.818 109.28 142.945 111.506 141.312C112.939 140.261 113.012 138.733 113.095 137.108C113.184 135.372 112.765 134.657 110.854 134.471C107.397 134.136 103.773 133.763 102.922 129.251C102.737 128.271 101.562 128.163 100.784 128.006C96.7682 127.191 93.6011 124.527 88.9598 124.358C85.0426 124.216 79.7635 122.23 77.7757 117.017C76.8979 114.715 75.9158 113.042 72.2836 113.776C69.3129 114.377 67.3852 110.644 66.377 107.939C64.8047 103.723 62.5632 100.486 58.9328 97.5832C55.0086 94.4458 53.9309 89.2912 54.0299 84.2816C54.0977 80.8586 54.3576 77.6187 50.6725 75.7561C49.8876 75.3592 49.566 74.721 49.4574 73.6963C49.0254 69.6324 48.6917 69.4049 44.3721 69.0619C42.9823 68.9516 43.0371 67.7724 42.526 66.9127C39.3841 61.6313 35.3938 57.7211 28.7267 57.0013C26.3104 56.7399 24.8268 57.9851 22.8982 58.3576C20.8514 58.7527 18.4152 57.7993 19.7606 61.6001C20.1578 62.7237 18.3961 64.4249 16.955 63.9594C14.3207 63.1076 13.0656 64.5178 11.715 66.1902C11.3934 66.5888 10.9832 67.2027 10.5946 67.2175C5.82133 67.399 1.87543 70.5616 -2.83792 70.9063L-3.14386 70.0006ZM96.0851 31.0147C95.229 31.1589 94.3737 31.3273 93.7801 32.0385C93.1031 32.8496 93.3577 33.7006 93.9235 34.3796C95.7557 36.5774 97.1176 39.3006 100.359 39.9554C100.988 40.0821 100.195 41.9951 101.552 41.6608C102.214 41.4984 102.897 40.5172 103.136 39.7678C103.446 38.8013 102.565 38.1275 101.745 37.9251C98.9332 37.2322 97.9407 35.2428 97.6391 32.6412C97.5357 31.7528 97.2645 30.9262 96.0851 31.0147Z" fill="#318DE1"/>
<path d="M388.158 160.106C388.112 157.545 388.208 155.351 385.455 154.687C385.12 154.606 384.507 154.424 384.516 154.346C385.126 149.048 380.453 149.902 377.741 148.467C377.141 148.149 376.637 147.609 376.165 147.101C375.321 146.192 374.34 145.075 375.314 143.906C376.455 142.536 378.279 142.993 378.89 144.225C380.169 146.804 381.754 146.038 383.948 145.844C388.806 145.414 392.702 148.013 395.349 151.843C396.378 153.33 399.266 154.997 398.37 155.983C396.944 157.555 395.109 155.153 393.489 154.337C392.186 153.68 391.05 154.007 390.189 155.004C389.229 156.117 389.867 157.22 390.412 158.377C393.064 164.016 396.967 168.805 400.693 173.716C404.161 178.287 404.355 180.811 401.574 185.792C401.06 186.712 400.534 187.626 400.097 188.584C396.739 195.945 391.174 196.853 385.466 191.451C382.766 188.896 379.513 186.894 376.386 184.831C374.435 183.544 372.436 184.162 370.468 185.256C367.267 187.036 363.913 188.3 360.165 188.671C356.069 189.076 356.021 189.307 355.444 185.166C354.949 181.605 352.818 178.497 353.312 174.572C353.705 171.438 354.887 169.882 357.787 169.059C360.184 168.379 362.431 167.943 363.592 164.69C364.236 162.887 367.633 161.077 370.46 161.21C372.106 161.287 373.028 161.033 373.852 159.633C375.144 157.437 377.367 157.682 379.472 157.84C380.842 157.942 381.991 158.568 381.653 160.119C380.893 163.618 383.146 164.786 385.719 164.645C388.675 164.483 387.878 161.624 388.158 160.106ZM229.155 11.5334C227.471 11.9485 225.179 10.1527 224.11 12.7326C223.013 15.382 226.067 16.0732 226.809 17.8855C227.223 18.8945 228.112 19.4633 228.933 20.1154C230.414 21.2912 231.984 21.4718 232.941 19.7872C234.415 17.1908 236.015 17.1456 238.168 18.819C238.726 19.2523 239.505 19.1585 240.096 18.6713C240.536 18.3075 240.778 17.6397 240.338 17.3115C235.703 13.8554 239.85 14.4416 241.841 13.9006C242.647 13.6809 243.382 13.1364 244.098 12.6623C244.501 12.3957 245.064 11.9824 245.082 11.6133C245.109 11.0593 244.418 10.9811 243.935 10.949C241.508 10.7892 239.23 9.60565 236.481 9.99989C233.996 9.47887 231.668 10.9134 229.155 11.5334ZM75.0876 20.7259C74.2749 19.8176 73.0216 19.6022 72.5219 20.8257C70.5733 25.5948 68.2005 21.9806 66.7212 20.8492C62.7762 17.8334 61.0779 17.671 57.7291 20.91C56.2776 22.3141 56.1864 23.1946 58.3592 23.6288C61.2552 24.2071 63.9774 25.039 66.5969 26.5951C69.7702 28.4803 76.1566 26.7401 78.698 23.8129C79.1334 23.3509 79.1821 22.8898 78.6962 22.4287C77.1639 22.5555 76.0767 21.8313 75.0876 20.7259ZM347.375 141.608C347.187 141.741 347.154 142.282 347.239 142.581C347.911 144.945 348.623 147.316 351.447 147.998C353.889 148.587 355.676 147.926 357.228 145.724C359.172 142.967 358.288 139.693 359.401 136.8C359.812 135.732 358.441 135.166 356.639 135.154C353.836 137.094 350.589 139.327 347.375 141.608ZM272.556 159.105C270.381 160.632 267.365 161.827 266.247 164.151C264.96 166.828 264.496 170.067 264.682 173.201C264.747 174.301 265.328 175.18 266.521 175.392C267.966 175.649 269.681 175.554 270.094 174.075C271.239 169.976 273.457 166.216 274.022 162.202C273.536 160.839 273.99 158.098 272.556 159.105ZM283.394 36.1497C279.796 32.1587 279.801 31.3173 283.881 27.9333C286.289 25.9369 288.915 24.2757 292.046 23.5376C293.383 23.2224 294.688 22.7135 295.941 22.1456C296.275 21.9945 296.545 21.292 296.524 20.8596C296.481 20.0407 295.801 19.6161 295.06 19.7976C288.318 21.4449 281.572 23.1008 277.204 29.2479C275.458 31.7054 276.059 34.3773 278.731 35.7068C280.195 36.4354 281.783 36.2026 283.335 36.2209L283.394 36.1497ZM425.365 204.485C426.623 201.454 428.913 199.554 431.46 197.665C434.55 195.371 434.329 193.714 431.14 191.19C430.466 190.657 429.791 189.782 428.919 190.18C427.867 190.66 428.537 191.667 428.676 192.467C429.076 194.778 428.766 196.358 426.226 197.7C424.068 198.84 422.533 201.267 420.913 203.278C419.637 204.861 420.326 206.537 422.311 206.652C423.673 206.67 424.844 205.74 425.365 204.485ZM388.122 89.3636C387.422 88.9607 386.686 89.1022 386.319 89.7613C384.097 93.761 380.389 95.7148 376.352 97.3612C374.701 98.0342 373.551 99.4218 373.636 101.421C373.669 102.194 374.1 102.875 374.909 102.516C378.599 100.878 382.407 99.4062 385.845 97.3334C387.915 96.0864 388.614 93.4605 389.094 91.4233C389.15 90.2702 388.756 89.7274 388.122 89.3636ZM331.864 8.71819C329.362 7.08655 327.82 8.64004 326.885 10.5721C325.911 12.5815 326.621 14.3547 328.98 15.0303C330.821 15.5574 332.691 15.9794 334.549 16.4483C335.627 15.5826 336.25 14.399 336.831 13.1859C335.683 11.1322 333.754 9.9504 331.864 8.71819ZM383.147 23.4985C382.117 25.3039 384.316 25.5791 385.095 26.5343C385.422 26.9355 385.79 27.3089 386.069 27.7405C386.852 28.9518 387.794 30.2214 389.356 29.7108C391.287 29.0795 388.899 27.6467 389.653 26.6654C390.068 26.1253 390.418 25.5314 390.858 25.0147C391.901 23.7912 391.211 23.1217 390.065 22.8065C389.079 22.5355 388.02 22.5321 387.333 22.4513C385.629 22.5972 383.902 22.1743 383.147 23.4985ZM363.522 129.301C365.213 130.76 366.749 129.6 367.604 128.568C368.529 127.452 367.508 126.157 366.155 125.889C363.706 125.403 363.558 124.207 364.408 122.158C364.769 121.289 363.738 120.543 362.913 120.32C361.811 120.021 361.416 121.015 361.142 121.817C360.921 122.461 360.946 123.191 360.862 123.882C360.691 126.216 361.853 127.86 363.522 129.301ZM359.407 146.136C359.535 147.685 359.755 149.903 361.44 150.289C362.349 150.497 364.674 149.677 364.521 147.635C364.41 146.14 364.057 144.485 361.962 144.266C360.714 144.326 359.293 144.751 359.407 146.136Z" fill="#318DE1"/>
<path d="M391.333 88H380.667V90.6667C380.93 90.6667 381.188 90.5885 381.407 90.442C381.627 90.2955 381.798 90.0872 381.899 89.8436C381.999 89.5999 382.026 89.3319 381.974 89.0732C381.923 88.8146 381.796 88.577 381.609 88.3905C381.423 88.2041 381.185 88.0771 380.927 88.0256C380.668 87.9742 380.4 88.0006 380.156 88.1015C379.913 88.2024 379.705 88.3733 379.558 88.5926C379.412 88.8118 379.333 89.0696 379.333 89.3333V92C379.333 92.3536 379.474 92.6928 379.724 92.9428C379.974 93.1929 380.313 93.3333 380.667 93.3333H391.333C391.687 93.3333 392.026 93.1929 392.276 92.9428C392.526 92.6928 392.667 92.3536 392.667 92V89.3333C392.667 89.0696 392.588 88.8118 392.442 88.5926C392.295 88.3733 392.087 88.2024 391.844 88.1015C391.6 88.0006 391.332 87.9742 391.073 88.0256C390.815 88.0771 390.577 88.2041 390.391 88.3905C390.204 88.577 390.077 88.8146 390.026 89.0732C389.974 89.3319 390.001 89.5999 390.102 89.8436C390.202 90.0872 390.373 90.2955 390.593 90.442C390.812 90.5885 391.07 90.6667 391.333 90.6667V88ZM388 91.3333H386.667V90H388V91.3333ZM390.667 91.3333H389.333V90H390.667V91.3333ZM391.333 94.6667H380.667V97.3333C380.93 97.3333 381.188 97.2551 381.407 97.1086C381.627 96.9621 381.798 96.7539 381.899 96.5102C381.999 96.2666 382.026 95.9985 381.974 95.7399C381.923 95.4812 381.796 95.2437 381.609 95.0572C381.423 94.8707 381.185 94.7437 380.927 94.6923C380.668 94.6408 380.4 94.6672 380.156 94.7682C379.913 94.8691 379.705 95.04 379.558 95.2592C379.412 95.4785 379.333 95.7363 379.333 96V98.6667C379.333 99.0203 379.474 99.3594 379.724 99.6095C379.974 99.8595 380.313 100 380.667 100H391.333C391.687 100 392.026 99.8595 392.276 99.6095C392.526 99.3594 392.667 99.0203 392.667 98.6667V96C392.667 95.7363 392.588 95.4785 392.442 95.2592C392.295 95.04 392.087 94.8691 391.844 94.7682C391.6 94.6672 391.332 94.6408 391.073 94.6923C390.815 94.7437 390.577 94.8707 390.391 95.0572C390.204 95.2437 390.077 95.4812 390.026 95.7399C389.974 95.9985 390.001 96.2666 390.102 96.5102C390.202 96.7539 390.373 96.9621 390.593 97.1086C390.812 97.2551 391.07 97.3333 391.333 97.3333V94.6667ZM388 98H386.667V96.6667H388V98ZM390.667 98H389.333V96.6667H390.667V98Z" fill="#E13E31"/>
<path d="M404 180H393.333V182.667C393.597 182.667 393.855 182.588 394.074 182.442C394.293 182.295 394.464 182.087 394.565 181.844C394.666 181.6 394.692 181.332 394.641 181.073C394.59 180.815 394.463 180.577 394.276 180.391C394.09 180.204 393.852 180.077 393.593 180.026C393.335 179.974 393.067 180.001 392.823 180.101C392.579 180.202 392.371 180.373 392.225 180.593C392.078 180.812 392 181.07 392 181.333V184C392 184.354 392.14 184.693 392.391 184.943C392.641 185.193 392.98 185.333 393.333 185.333H404C404.354 185.333 404.693 185.193 404.943 184.943C405.193 184.693 405.333 184.354 405.333 184V181.333C405.333 181.07 405.255 180.812 405.109 180.593C404.962 180.373 404.754 180.202 404.51 180.101C404.267 180.001 403.999 179.974 403.74 180.026C403.481 180.077 403.244 180.204 403.057 180.391C402.871 180.577 402.744 180.815 402.692 181.073C402.641 181.332 402.667 181.6 402.768 181.844C402.869 182.087 403.04 182.295 403.259 182.442C403.479 182.588 403.736 182.667 404 182.667V180ZM400.667 183.333H399.333V182H400.667V183.333ZM403.333 183.333H402V182H403.333V183.333ZM404 186.667H393.333V189.333C393.597 189.333 393.855 189.255 394.074 189.109C394.293 188.962 394.464 188.754 394.565 188.51C394.666 188.267 394.692 187.999 394.641 187.74C394.59 187.481 394.463 187.244 394.276 187.057C394.09 186.871 393.852 186.744 393.593 186.692C393.335 186.641 393.067 186.667 392.823 186.768C392.579 186.869 392.371 187.04 392.225 187.259C392.078 187.479 392 187.736 392 188V190.667C392 191.02 392.14 191.359 392.391 191.609C392.641 191.86 392.98 192 393.333 192H404C404.354 192 404.693 191.86 404.943 191.609C405.193 191.359 405.333 191.02 405.333 190.667V188C405.333 187.736 405.255 187.479 405.109 187.259C404.962 187.04 404.754 186.869 404.51 186.768C404.267 186.667 403.999 186.641 403.74 186.692C403.481 186.744 403.244 186.871 403.057 187.057C402.871 187.244 402.744 187.481 402.692 187.74C402.641 187.999 402.667 188.267 402.768 188.51C402.869 188.754 403.04 188.962 403.259 189.109C403.479 189.255 403.736 189.333 404 189.333V186.667ZM400.667 190H399.333V188.667H400.667V190ZM403.333 190H402V188.667H403.333V190Z" fill="#E13E31"/>
<path d="M348.333 133H337.667V135.667C337.93 135.667 338.188 135.588 338.407 135.442C338.627 135.295 338.798 135.087 338.899 134.844C338.999 134.6 339.026 134.332 338.974 134.073C338.923 133.815 338.796 133.577 338.609 133.391C338.423 133.204 338.185 133.077 337.927 133.026C337.668 132.974 337.4 133.001 337.156 133.101C336.913 133.202 336.705 133.373 336.558 133.593C336.412 133.812 336.333 134.07 336.333 134.333V137C336.333 137.354 336.474 137.693 336.724 137.943C336.974 138.193 337.313 138.333 337.667 138.333H348.333C348.687 138.333 349.026 138.193 349.276 137.943C349.526 137.693 349.667 137.354 349.667 137V134.333C349.667 134.07 349.588 133.812 349.442 133.593C349.295 133.373 349.087 133.202 348.844 133.101C348.6 133.001 348.332 132.974 348.073 133.026C347.815 133.077 347.577 133.204 347.391 133.391C347.204 133.577 347.077 133.815 347.026 134.073C346.974 134.332 347.001 134.6 347.102 134.844C347.202 135.087 347.373 135.295 347.593 135.442C347.812 135.588 348.07 135.667 348.333 135.667V133ZM345 136.333H343.667V135H345V136.333ZM347.667 136.333H346.333V135H347.667V136.333ZM348.333 139.667H337.667V142.333C337.93 142.333 338.188 142.255 338.407 142.109C338.627 141.962 338.798 141.754 338.899 141.51C338.999 141.267 339.026 140.999 338.974 140.74C338.923 140.481 338.796 140.244 338.609 140.057C338.423 139.871 338.185 139.744 337.927 139.692C337.668 139.641 337.4 139.667 337.156 139.768C336.913 139.869 336.705 140.04 336.558 140.259C336.412 140.479 336.333 140.736 336.333 141V143.667C336.333 144.02 336.474 144.359 336.724 144.609C336.974 144.86 337.313 145 337.667 145H348.333C348.687 145 349.026 144.86 349.276 144.609C349.526 144.359 349.667 144.02 349.667 143.667V141C349.667 140.736 349.588 140.479 349.442 140.259C349.295 140.04 349.087 139.869 348.844 139.768C348.6 139.667 348.332 139.641 348.073 139.692C347.815 139.744 347.577 139.871 347.391 140.057C347.204 140.244 347.077 140.481 347.026 140.74C346.974 140.999 347.001 141.267 347.102 141.51C347.202 141.754 347.373 141.962 347.593 142.109C347.812 142.255 348.07 142.333 348.333 142.333V139.667ZM345 143H343.667V141.667H345V143ZM347.667 143H346.333V141.667H347.667V143Z" fill="#E13E31"/>
<path d="M227.333 84H216.667V86.6667C216.93 86.6667 217.188 86.5885 217.407 86.442C217.627 86.2955 217.798 86.0872 217.899 85.8436C217.999 85.5999 218.026 85.3319 217.974 85.0732C217.923 84.8146 217.796 84.577 217.609 84.3905C217.423 84.2041 217.185 84.0771 216.927 84.0256C216.668 83.9742 216.4 84.0006 216.156 84.1015C215.913 84.2024 215.705 84.3733 215.558 84.5926C215.412 84.8118 215.333 85.0696 215.333 85.3333V88C215.333 88.3536 215.474 88.6928 215.724 88.9428C215.974 89.1929 216.313 89.3333 216.667 89.3333H227.333C227.687 89.3333 228.026 89.1929 228.276 88.9428C228.526 88.6928 228.667 88.3536 228.667 88V85.3333C228.667 85.0696 228.588 84.8118 228.442 84.5926C228.295 84.3733 228.087 84.2024 227.844 84.1015C227.6 84.0006 227.332 83.9742 227.073 84.0256C226.815 84.0771 226.577 84.2041 226.391 84.3905C226.204 84.577 226.077 84.8146 226.026 85.0732C225.974 85.3319 226.001 85.5999 226.102 85.8436C226.202 86.0872 226.373 86.2955 226.593 86.442C226.812 86.5885 227.07 86.6667 227.333 86.6667V84ZM224 87.3333H222.667V86H224V87.3333ZM226.667 87.3333H225.333V86H226.667V87.3333ZM227.333 90.6667H216.667V93.3333C216.93 93.3333 217.188 93.2551 217.407 93.1086C217.627 92.9621 217.798 92.7539 217.899 92.5102C217.999 92.2666 218.026 91.9985 217.974 91.7399C217.923 91.4812 217.796 91.2437 217.609 91.0572C217.423 90.8707 217.185 90.7437 216.927 90.6923C216.668 90.6408 216.4 90.6672 216.156 90.7682C215.913 90.8691 215.705 91.04 215.558 91.2592C215.412 91.4785 215.333 91.7363 215.333 92V94.6667C215.333 95.0203 215.474 95.3594 215.724 95.6095C215.974 95.8595 216.313 96 216.667 96H227.333C227.687 96 228.026 95.8595 228.276 95.6095C228.526 95.3594 228.667 95.0203 228.667 94.6667V92C228.667 91.7363 228.588 91.4785 228.442 91.2592C228.295 91.04 228.087 90.8691 227.844 90.7682C227.6 90.6672 227.332 90.6408 227.073 90.6923C226.815 90.7437 226.577 90.8707 226.391 91.0572C226.204 91.2437 226.077 91.4812 226.026 91.7399C225.974 91.9985 226.001 92.2666 226.102 92.5102C226.202 92.7539 226.373 92.9621 226.593 93.1086C226.812 93.2551 227.07 93.3333 227.333 93.3333V90.6667ZM224 94H222.667V92.6667H224V94ZM226.667 94H225.333V92.6667H226.667V94Z" fill="#E13E31"/>
<path d="M219.333 50H208.667V52.6667C208.93 52.6667 209.188 52.5885 209.407 52.442C209.627 52.2955 209.798 52.0872 209.899 51.8436C209.999 51.5999 210.026 51.3319 209.974 51.0732C209.923 50.8146 209.796 50.577 209.609 50.3905C209.423 50.2041 209.185 50.0771 208.927 50.0256C208.668 49.9742 208.4 50.0006 208.156 50.1015C207.913 50.2024 207.705 50.3733 207.558 50.5926C207.412 50.8118 207.333 51.0696 207.333 51.3333V54C207.333 54.3536 207.474 54.6928 207.724 54.9428C207.974 55.1929 208.313 55.3333 208.667 55.3333H219.333C219.687 55.3333 220.026 55.1929 220.276 54.9428C220.526 54.6928 220.667 54.3536 220.667 54V51.3333C220.667 51.0696 220.588 50.8118 220.442 50.5926C220.295 50.3733 220.087 50.2024 219.844 50.1015C219.6 50.0006 219.332 49.9742 219.073 50.0256C218.815 50.0771 218.577 50.2041 218.391 50.3905C218.204 50.577 218.077 50.8146 218.026 51.0732C217.974 51.3319 218.001 51.5999 218.102 51.8436C218.202 52.0872 218.373 52.2955 218.593 52.442C218.812 52.5885 219.07 52.6667 219.333 52.6667V50ZM216 53.3333H214.667V52H216V53.3333ZM218.667 53.3333H217.333V52H218.667V53.3333ZM219.333 56.6667H208.667V59.3333C208.93 59.3333 209.188 59.2551 209.407 59.1086C209.627 58.9621 209.798 58.7539 209.899 58.5102C209.999 58.2666 210.026 57.9985 209.974 57.7399C209.923 57.4812 209.796 57.2437 209.609 57.0572C209.423 56.8707 209.185 56.7437 208.927 56.6923C208.668 56.6408 208.4 56.6672 208.156 56.7682C207.913 56.8691 207.705 57.04 207.558 57.2592C207.412 57.4785 207.333 57.7363 207.333 58V60.6667C207.333 61.0203 207.474 61.3594 207.724 61.6095C207.974 61.8595 208.313 62 208.667 62H219.333C219.687 62 220.026 61.8595 220.276 61.6095C220.526 61.3594 220.667 61.0203 220.667 60.6667V58C220.667 57.7363 220.588 57.4785 220.442 57.2592C220.295 57.04 220.087 56.8691 219.844 56.7682C219.6 56.6672 219.332 56.6408 219.073 56.6923C218.815 56.7437 218.577 56.8707 218.391 57.0572C218.204 57.2437 218.077 57.4812 218.026 57.7399C217.974 57.9985 218.001 58.2666 218.102 58.5102C218.202 58.7539 218.373 58.9621 218.593 59.1086C218.812 59.2551 219.07 59.3333 219.333 59.3333V56.6667ZM216 60H214.667V58.6667H216V60ZM218.667 60H217.333V58.6667H218.667V60Z" fill="#E13E31"/>
<path d="M114.333 98H103.667V100.667C103.93 100.667 104.188 100.588 104.407 100.442C104.627 100.295 104.798 100.087 104.898 99.8436C104.999 99.5999 105.026 99.3319 104.974 99.0732C104.923 98.8146 104.796 98.577 104.609 98.3905C104.423 98.2041 104.185 98.0771 103.927 98.0256C103.668 97.9742 103.4 98.0006 103.156 98.1015C102.913 98.2024 102.705 98.3733 102.558 98.5926C102.412 98.8118 102.333 99.0696 102.333 99.3333V102C102.333 102.354 102.474 102.693 102.724 102.943C102.974 103.193 103.313 103.333 103.667 103.333H114.333C114.687 103.333 115.026 103.193 115.276 102.943C115.526 102.693 115.667 102.354 115.667 102V99.3333C115.667 99.0696 115.588 98.8118 115.442 98.5926C115.295 98.3733 115.087 98.2024 114.844 98.1015C114.6 98.0006 114.332 97.9742 114.073 98.0256C113.815 98.0771 113.577 98.2041 113.391 98.3905C113.204 98.577 113.077 98.8146 113.026 99.0732C112.974 99.3319 113.001 99.5999 113.101 99.8436C113.202 100.087 113.373 100.295 113.593 100.442C113.812 100.588 114.07 100.667 114.333 100.667V98ZM111 101.333H109.667V100H111V101.333ZM113.667 101.333H112.333V100H113.667V101.333ZM114.333 104.667H103.667V107.333C103.93 107.333 104.188 107.255 104.407 107.109C104.627 106.962 104.798 106.754 104.898 106.51C104.999 106.267 105.026 105.999 104.974 105.74C104.923 105.481 104.796 105.244 104.609 105.057C104.423 104.871 104.185 104.744 103.927 104.692C103.668 104.641 103.4 104.667 103.156 104.768C102.913 104.869 102.705 105.04 102.558 105.259C102.412 105.479 102.333 105.736 102.333 106V108.667C102.333 109.02 102.474 109.359 102.724 109.609C102.974 109.86 103.313 110 103.667 110H114.333C114.687 110 115.026 109.86 115.276 109.609C115.526 109.359 115.667 109.02 115.667 108.667V106C115.667 105.736 115.588 105.479 115.442 105.259C115.295 105.04 115.087 104.869 114.844 104.768C114.6 104.667 114.332 104.641 114.073 104.692C113.815 104.744 113.577 104.871 113.391 105.057C113.204 105.244 113.077 105.481 113.026 105.74C112.974 105.999 113.001 106.267 113.101 106.51C113.202 106.754 113.373 106.962 113.593 107.109C113.812 107.255 114.07 107.333 114.333 107.333V104.667ZM111 108H109.667V106.667H111V108ZM113.667 108H112.333V106.667H113.667V108Z" fill="#E13E31"/>
<path d="M76.3333 106H65.6666V108.667C65.9304 108.667 66.1881 108.588 66.4074 108.442C66.6267 108.295 66.7976 108.087 66.8985 107.844C66.9994 107.6 67.0258 107.332 66.9744 107.073C66.9229 106.815 66.7959 106.577 66.6095 106.391C66.423 106.204 66.1854 106.077 65.9268 106.026C65.6681 105.974 65.4 106.001 65.1564 106.101C64.9128 106.202 64.7045 106.373 64.558 106.593C64.4115 106.812 64.3333 107.07 64.3333 107.333V110C64.3333 110.354 64.4738 110.693 64.7238 110.943C64.9739 111.193 65.313 111.333 65.6666 111.333H76.3333C76.6869 111.333 77.0261 111.193 77.2761 110.943C77.5262 110.693 77.6666 110.354 77.6666 110V107.333C77.6666 107.07 77.5884 106.812 77.4419 106.593C77.2954 106.373 77.0872 106.202 76.8436 106.101C76.5999 106.001 76.3318 105.974 76.0732 106.026C75.8146 106.077 75.577 106.204 75.3905 106.391C75.204 106.577 75.077 106.815 75.0256 107.073C74.9742 107.332 75.0006 107.6 75.1015 107.844C75.2024 108.087 75.3733 108.295 75.5926 108.442C75.8118 108.588 76.0696 108.667 76.3333 108.667V106ZM73 109.333H71.6666V108H73V109.333ZM75.6666 109.333H74.3333V108H75.6666V109.333ZM76.3333 112.667H65.6666V115.333C65.9304 115.333 66.1881 115.255 66.4074 115.109C66.6267 114.962 66.7976 114.754 66.8985 114.51C66.9994 114.267 67.0258 113.999 66.9744 113.74C66.9229 113.481 66.7959 113.244 66.6095 113.057C66.423 112.871 66.1854 112.744 65.9268 112.692C65.6681 112.641 65.4 112.667 65.1564 112.768C64.9128 112.869 64.7045 113.04 64.558 113.259C64.4115 113.479 64.3333 113.736 64.3333 114V116.667C64.3333 117.02 64.4738 117.359 64.7238 117.609C64.9739 117.86 65.313 118 65.6666 118H76.3333C76.6869 118 77.0261 117.86 77.2761 117.609C77.5262 117.359 77.6666 117.02 77.6666 116.667V114C77.6666 113.736 77.5884 113.479 77.4419 113.259C77.2954 113.04 77.0872 112.869 76.8436 112.768C76.5999 112.667 76.3318 112.641 76.0732 112.692C75.8146 112.744 75.577 112.871 75.3905 113.057C75.204 113.244 75.077 113.481 75.0256 113.74C74.9742 113.999 75.0006 114.267 75.1015 114.51C75.2024 114.754 75.3733 114.962 75.5926 115.109C75.8118 115.255 76.0696 115.333 76.3333 115.333V112.667ZM73 116H71.6666V114.667H73V116ZM75.6666 116H74.3333V114.667H75.6666V116Z" fill="#E13E31"/>
<path d="M146.333 182H135.667V184.667C135.93 184.667 136.188 184.588 136.407 184.442C136.627 184.295 136.798 184.087 136.898 183.844C136.999 183.6 137.026 183.332 136.974 183.073C136.923 182.815 136.796 182.577 136.609 182.391C136.423 182.204 136.185 182.077 135.927 182.026C135.668 181.974 135.4 182.001 135.156 182.101C134.913 182.202 134.705 182.373 134.558 182.593C134.412 182.812 134.333 183.07 134.333 183.333V186C134.333 186.354 134.474 186.693 134.724 186.943C134.974 187.193 135.313 187.333 135.667 187.333H146.333C146.687 187.333 147.026 187.193 147.276 186.943C147.526 186.693 147.667 186.354 147.667 186V183.333C147.667 183.07 147.588 182.812 147.442 182.593C147.295 182.373 147.087 182.202 146.844 182.101C146.6 182.001 146.332 181.974 146.073 182.026C145.815 182.077 145.577 182.204 145.391 182.391C145.204 182.577 145.077 182.815 145.026 183.073C144.974 183.332 145.001 183.6 145.101 183.844C145.202 184.087 145.373 184.295 145.593 184.442C145.812 184.588 146.07 184.667 146.333 184.667V182ZM143 185.333H141.667V184H143V185.333ZM145.667 185.333H144.333V184H145.667V185.333ZM146.333 188.667H135.667V191.333C135.93 191.333 136.188 191.255 136.407 191.109C136.627 190.962 136.798 190.754 136.898 190.51C136.999 190.267 137.026 189.999 136.974 189.74C136.923 189.481 136.796 189.244 136.609 189.057C136.423 188.871 136.185 188.744 135.927 188.692C135.668 188.641 135.4 188.667 135.156 188.768C134.913 188.869 134.705 189.04 134.558 189.259C134.412 189.479 134.333 189.736 134.333 190V192.667C134.333 193.02 134.474 193.359 134.724 193.609C134.974 193.86 135.313 194 135.667 194H146.333C146.687 194 147.026 193.86 147.276 193.609C147.526 193.359 147.667 193.02 147.667 192.667V190C147.667 189.736 147.588 189.479 147.442 189.259C147.295 189.04 147.087 188.869 146.844 188.768C146.6 188.667 146.332 188.641 146.073 188.692C145.815 188.744 145.577 188.871 145.391 189.057C145.204 189.244 145.077 189.481 145.026 189.74C144.974 189.999 145.001 190.267 145.101 190.51C145.202 190.754 145.373 190.962 145.593 191.109C145.812 191.255 146.07 191.333 146.333 191.333V188.667ZM143 192H141.667V190.667H143V192ZM145.667 192H144.333V190.667H145.667V192Z" fill="#E13E31"/>
</g>
<defs>
<clipPath id="clip0_19_628">
<rect width="445" height="221" fill="white"/>
</clipPath>
</defs>
</svg>
